<svg id="Слой_1" data-name="Слой 1" xmlns="http://www.w3.org/2000/svg" viewBox="0 0 864.9 238.35"><title>Solocean for Blackiii</title><path d="M244.7,178.11l-33.13,57.38a41.9,41.9,0,0,0-29.47,1.17l-33.8-58.55a112.82,112.82,0,0,1,96.4,0Z" transform="translate(-88.1 -167.29)" style="fill:#fff"/><path d="M244.84,372.61a104.51,104.51,0,0,1-96.68,0l34-59a41.81,41.81,0,0,0,29.26,1.15Z" transform="translate(-88.1 -167.29)" style="fill:#fff"/><path d="M170.57,244a41.66,41.66,0,0,0-13.42,24.44h-69a107.23,107.23,0,0,1,48.29-83.63Z" transform="translate(-88.1 -167.29)" style="fill:#fff"/><path d="M348.35,358.83a108,108,0,0,1-48.84,46.81L238.92,300.7H360.1A107.35,107.35,0,0,1,348.35,358.83Z" transform="translate(-88.1 -167.29)" style="fill:#fff"/><path d="M170.65,306.36l-34.1,59.06a117.64,117.64,0,0,1-48.13-83.37h68.76A41.67,41.67,0,0,0,170.65,306.36Z" transform="translate(-88.1 -167.29)" style="fill:#fff"/><path d="M305,268.41H239.6a41.67,41.67,0,0,0-16-26.54l33-57.19A104.05,104.05,0,0,1,305,268.41Z" transform="translate(-88.1 -167.29)" style="fill:#fff"/><path d="M297.65,335.61" transform="translate(-88.1 -167.29)" style="fill:#fff"/><path d="M308.38,207.09" transform="translate(-88.1 -167.29)" style="fill:#3eb5f1;stroke:#fff;stroke-miterlimit:10;stroke-width:10px"/><text transform="translate(279.5 147.84)" style="font-size:110.74368286132812px;fill:#fff;font-family:Quicksand-Bold, Quicksand;font-weight:700">so<tspan x="121.37" y="0" style="letter-spacing:-0.009991046747880664em">l</tspan><tspan x="150.17" y="0">oc</tspan><tspan x="275.2" y="0" style="letter-spacing:0.003994655054536576em">e</tspan><tspan x="339.87" y="0">an</tspan></text></svg>